<svg xmlns="http://www.w3.org/2000/svg" xmlns:xlink="http://www.w3.org/1999/xlink" preserveAspectRatio="xMidYMid" width="186.094" height="148.062" viewBox="0 0 186.094 148.062">
  <defs>
    <style>
      .cls-1 {
        fill: #fff;
        fill-rule: evenodd;
      }
    </style>
  </defs>
  <path d="M182.895,133.039 L179.499,133.039 C177.911,133.039 176.507,131.892 176.302,130.313 C175.044,120.641 167.356,114.642 158.056,114.642 C148.756,114.642 141.068,120.641 139.810,130.313 C139.605,131.892 138.199,133.039 136.613,133.039 L133.213,133.039 C131.442,133.039 130.008,131.597 130.008,129.823 L130.008,67.100 C130.008,65.325 131.442,63.884 133.213,63.884 L156.750,63.884 C157.698,63.884 158.599,64.306 159.208,65.036 L185.353,96.398 C185.836,96.975 186.100,97.705 186.100,98.461 L186.100,129.823 C186.100,131.597 184.664,133.039 182.895,133.039 ZM169.560,87.557 L156.205,71.474 C155.596,70.741 154.693,70.316 153.743,70.316 L139.624,70.316 C137.853,70.316 136.419,71.757 136.419,73.533 L136.419,89.615 C136.419,91.393 137.853,92.831 139.624,92.831 L167.096,92.831 C169.814,92.831 171.298,89.652 169.560,87.557 ZM120.392,133.041 L80.136,133.041 C78.547,133.041 77.143,131.894 76.938,130.315 C75.680,120.643 67.992,114.644 58.692,114.644 C49.392,114.644 41.704,120.642 40.446,130.315 C40.241,131.893 38.836,133.041 37.249,133.041 L29.042,133.041 C27.271,133.041 25.837,131.600 25.837,129.824 L25.837,93.459 C31.606,95.654 37.858,96.867 44.395,96.867 C72.707,96.867 95.742,74.331 96.653,46.194 L120.392,46.194 C122.162,46.194 123.598,47.635 123.598,49.411 L123.598,129.824 C123.598,131.600 122.162,133.041 120.392,133.041 ZM44.396,88.940 C19.881,88.940 0.006,69.028 0.006,44.468 C0.006,19.909 19.881,-0.004 44.396,-0.004 C68.915,-0.004 88.786,19.909 88.786,44.468 C88.786,69.028 68.915,88.940 44.396,88.940 ZM41.085,29.740 C41.979,28.828 43.171,28.372 44.656,28.372 C47.614,28.372 49.793,30.413 51.207,34.496 L58.447,31.521 C56.718,25.565 52.914,22.237 47.040,21.532 L47.040,16.673 L41.784,16.673 L41.784,21.532 C37.893,22.080 35.043,23.584 33.233,26.043 C31.423,28.507 30.513,31.282 30.513,34.360 C30.513,36.705 31.022,38.768 32.035,40.538 C33.049,42.302 34.371,43.676 35.997,44.653 C37.622,45.641 39.882,46.629 42.770,47.633 C45.983,48.773 48.059,49.712 48.991,50.456 C49.923,51.194 50.389,52.286 50.389,53.724 C50.389,55.114 49.923,56.298 48.991,57.280 C48.059,58.263 46.596,58.751 44.618,58.751 C40.386,58.751 37.893,56.461 37.140,51.873 L29.012,53.996 C30.654,61.292 34.907,65.298 41.784,66.004 L41.784,72.264 L47.040,72.264 L47.040,65.972 C51.164,65.538 54.317,64.093 56.501,61.639 C58.685,59.191 59.779,56.130 59.780,52.454 C59.780,50.061 59.249,47.970 58.192,46.179 C57.130,44.392 55.716,42.987 53.938,41.971 C52.166,40.957 49.717,39.876 46.596,38.736 C43.756,37.688 41.898,36.814 41.036,36.109 C40.169,35.398 39.736,34.382 39.736,33.057 C39.736,31.760 40.185,30.652 41.085,29.740 ZM58.691,120.708 C66.201,120.708 72.313,126.842 72.313,134.379 C72.313,141.917 66.201,148.049 58.691,148.049 C51.179,148.049 45.068,141.917 45.068,134.379 C45.068,126.842 51.179,120.708 58.691,120.708 ZM58.691,138.399 C60.901,138.399 62.697,136.596 62.697,134.379 C62.697,132.161 60.901,130.358 58.691,130.358 C56.481,130.358 54.684,132.161 54.684,134.379 C54.684,136.596 56.481,138.399 58.691,138.399 ZM158.054,120.708 C165.564,120.708 171.677,126.842 171.677,134.379 C171.677,141.917 165.564,148.049 158.054,148.049 C150.543,148.049 144.432,141.917 144.432,134.379 C144.432,126.842 150.543,120.708 158.054,120.708 ZM158.054,138.399 C160.264,138.399 162.061,136.596 162.061,134.379 C162.061,132.161 160.264,130.358 158.054,130.358 C155.844,130.358 154.048,132.161 154.048,134.379 C154.048,136.596 155.844,138.399 158.054,138.399 Z" class="cls-1"/>
</svg>
