<svg xmlns="http://www.w3.org/2000/svg" xmlns:xlink="http://www.w3.org/1999/xlink" preserveAspectRatio="xMidYMid" width="162.438" height="149.5" viewBox="0 0 162.438 149.5">
  <defs>
    <style>
      .cls-1 {
        fill: #fff;
        fill-rule: evenodd;
      }
    </style>
  </defs>
  <path d="M159.239,26.562 L159.193,26.690 C157.752,30.698 156.390,34.482 156.390,37.964 C156.390,45.604 155.577,53.010 154.159,58.283 C152.502,64.443 150.601,65.792 150.009,65.792 C147.820,65.792 146.576,64.138 145.077,58.589 C145.059,58.522 145.041,58.451 145.023,58.383 C144.902,57.931 144.780,57.453 144.655,56.949 C144.623,56.820 144.591,56.692 144.559,56.559 C144.414,55.966 144.268,55.350 144.116,54.684 C142.493,47.640 140.271,37.992 130.881,37.992 C121.377,37.992 118.627,48.168 116.610,55.632 C115.509,59.739 113.847,65.943 111.895,65.943 C111.604,65.943 109.835,64.731 108.149,59.162 C108.079,58.931 108.009,58.706 107.939,58.459 C107.766,57.844 107.603,57.197 107.446,56.536 C107.398,56.331 107.352,56.122 107.305,55.914 C107.196,55.429 107.092,54.934 106.993,54.428 C106.948,54.199 106.901,53.973 106.858,53.739 C106.732,53.057 106.611,52.363 106.501,51.649 C106.467,51.429 106.439,51.201 106.406,50.979 C106.332,50.461 106.260,49.940 106.193,49.409 C106.151,49.066 106.111,48.719 106.072,48.370 C106.024,47.938 105.979,47.502 105.937,47.063 C105.901,46.699 105.865,46.336 105.833,45.968 C105.774,45.258 105.720,44.543 105.676,43.822 C105.559,41.900 105.495,39.942 105.495,37.979 C105.495,37.565 105.472,37.148 105.437,36.729 C105.426,36.593 105.409,36.457 105.394,36.320 C105.363,36.033 105.327,35.744 105.282,35.454 C105.258,35.298 105.233,35.142 105.205,34.985 C105.154,34.699 105.095,34.412 105.033,34.124 C105.001,33.977 104.973,33.831 104.938,33.684 C104.843,33.282 104.739,32.877 104.626,32.469 C104.570,32.269 104.508,32.067 104.448,31.866 C104.381,31.641 104.315,31.416 104.243,31.189 C104.164,30.938 104.082,30.685 103.999,30.432 C103.945,30.270 103.890,30.106 103.835,29.943 C103.734,29.645 103.632,29.347 103.526,29.047 C103.223,28.190 102.906,27.324 102.582,26.444 C99.968,19.351 97.266,12.017 101.675,5.671 C105.143,0.662 107.856,-0.013 110.051,-0.013 C112.422,-0.013 115.209,0.903 118.164,1.874 C121.845,3.094 126.015,4.477 130.632,4.477 C135.220,4.477 139.336,3.142 142.968,1.963 L143.081,1.926 C145.975,0.981 148.708,0.089 151.124,0.089 C153.379,0.089 156.194,0.768 159.979,5.807 C164.510,11.828 161.830,19.318 159.239,26.562 ZM86.253,39.791 C85.780,40.262 85.547,40.864 85.547,41.595 L85.547,59.162 L67.932,59.162 C67.197,59.162 66.595,59.398 66.123,59.868 C65.651,60.339 65.416,60.939 65.416,61.672 L65.416,76.730 C65.416,77.462 65.652,78.064 66.123,78.534 C66.595,79.005 67.197,79.239 67.932,79.239 L85.547,79.239 L85.547,96.806 C85.547,97.539 85.780,98.140 86.253,98.611 C86.725,99.081 87.328,99.315 88.061,99.315 L103.162,99.315 C103.896,99.315 104.498,99.081 104.970,98.611 C105.441,98.140 105.676,97.539 105.676,96.806 L105.676,79.239 L123.291,79.239 C124.024,79.239 124.628,79.005 125.101,78.534 C125.572,78.064 125.808,77.462 125.808,76.730 L125.808,61.672 C125.808,60.939 125.572,60.339 125.101,59.868 C124.628,59.398 124.024,59.162 123.291,59.162 L122.449,59.162 C122.623,58.529 122.794,57.898 122.962,57.273 C124.986,49.782 126.739,44.480 130.881,44.480 C134.455,44.480 135.823,47.913 137.718,56.143 C139.061,62.028 140.678,69.083 145.939,71.453 L145.939,124.413 C145.939,125.772 145.439,126.948 144.445,127.941 C143.449,128.935 142.269,129.432 140.906,129.432 L125.807,129.432 C125.807,134.975 123.841,139.705 119.909,143.627 C115.979,147.548 111.234,149.508 105.676,149.508 C100.118,149.508 95.376,147.548 91.443,143.627 C87.512,139.705 85.546,134.975 85.546,129.432 L55.348,129.432 C55.348,134.975 53.382,139.705 49.451,143.627 C45.519,147.548 40.775,149.508 35.217,149.508 C29.659,149.508 24.916,147.548 20.983,143.627 C17.051,139.705 15.086,134.975 15.086,129.432 L5.020,129.432 C3.657,129.432 2.478,128.935 1.480,127.941 C0.485,126.948 -0.013,125.772 -0.013,124.413 C-0.013,123.054 0.485,121.877 1.480,120.884 C2.477,119.890 3.656,119.393 5.020,119.393 L5.020,86.768 C5.020,85.408 5.361,83.892 6.042,82.219 C6.724,80.547 7.562,79.212 8.558,78.219 L24.129,62.692 C25.125,61.698 26.462,60.861 28.139,60.182 C29.817,59.502 31.337,59.162 32.701,59.162 L45.283,59.162 L45.283,34.066 C45.283,32.707 45.781,31.530 46.777,30.537 C47.773,29.544 48.953,29.047 50.317,29.047 L96.552,29.047 C97.791,32.409 98.928,35.573 98.928,37.981 C98.928,38.342 98.931,38.712 98.936,39.087 L88.061,39.087 C87.328,39.087 86.725,39.322 86.253,39.791 ZM98.560,136.530 C100.526,138.490 102.898,139.470 105.676,139.470 C108.455,139.470 110.827,138.490 112.793,136.530 C114.759,134.569 115.741,132.203 115.741,129.432 C115.741,126.661 114.758,124.295 112.793,122.334 C110.827,120.374 108.455,119.393 105.676,119.393 C102.898,119.393 100.526,120.374 98.560,122.334 C96.594,124.295 95.610,126.661 95.610,129.432 C95.610,132.203 96.594,134.569 98.560,136.530 ZM28.099,136.530 C30.065,138.490 32.438,139.470 35.216,139.470 C37.995,139.470 40.366,138.490 42.334,136.530 C44.300,134.569 45.282,132.203 45.282,129.432 C45.282,126.661 44.299,124.295 42.334,122.334 C40.367,120.374 37.995,119.393 35.216,119.393 C32.438,119.393 30.066,120.374 28.099,122.334 C26.133,124.295 25.150,126.661 25.150,129.432 C25.150,132.203 26.134,134.569 28.099,136.530 ZM45.283,69.202 L32.857,69.202 C32.124,69.305 31.546,69.542 31.127,69.907 L15.793,85.201 C15.427,85.827 15.190,86.404 15.086,86.926 L15.086,89.278 L45.283,89.278 L45.283,69.202 Z" class="cls-1"/>
</svg>
