<svg xmlns="http://www.w3.org/2000/svg" xmlns:xlink="http://www.w3.org/1999/xlink" preserveAspectRatio="xMidYMid" width="167" height="153" viewBox="0 0 167 153">
  <defs>
    <style>
      .cls-1 {
        fill: #fff;
        fill-rule: evenodd;
      }
    </style>
  </defs>
  <path d="M139.956,121.419 C139.956,121.419 158.314,120.867 158.089,101.280 L165.140,101.280 C165.140,101.280 177.233,136.101 139.956,121.419 ZM121.225,39.059 L121.225,29.294 L126.524,24.581 L165.140,94.953 L155.738,94.953 L121.225,39.059 ZM89.923,77.108 L70.221,77.108 L83.726,49.498 L117.458,29.294 L117.458,41.081 L89.923,61.956 L89.923,77.108 ZM45.865,72.117 C42.114,68.390 43.469,61.000 48.892,55.615 C53.267,51.268 64.604,48.782 68.826,47.983 C69.194,47.914 69.574,48.030 69.837,48.293 C70.104,48.557 70.222,48.935 70.151,49.300 C69.348,53.493 66.847,64.760 62.472,69.107 C57.052,74.496 49.614,75.842 45.865,72.117 ZM45.453,41.783 C42.430,38.780 43.521,32.824 47.891,28.483 C51.313,25.085 60.008,23.098 63.634,22.394 C64.005,22.322 64.385,22.438 64.654,22.703 C64.918,22.969 65.036,23.348 64.962,23.716 C64.255,27.318 62.257,35.960 58.838,39.358 C54.468,43.700 48.474,44.785 45.453,41.783 ZM37.730,26.983 C33.459,26.983 29.990,22.004 29.990,15.864 C29.990,11.058 34.729,3.542 36.790,0.498 C37.001,0.187 37.356,-0.001 37.730,-0.001 C38.110,0.001 38.461,0.187 38.670,0.498 C40.734,3.543 45.470,11.058 45.469,15.864 C45.469,22.004 42.006,26.983 37.730,26.983 ZM30.012,41.783 C26.989,44.785 20.998,43.700 16.628,39.358 C13.209,35.960 11.208,27.318 10.501,23.716 C10.427,23.348 10.545,22.969 10.812,22.703 C11.078,22.438 11.460,22.322 11.829,22.394 C15.457,23.097 24.153,25.084 27.572,28.483 C31.942,32.824 33.036,38.780 30.012,41.783 ZM26.572,55.615 C31.997,61.000 33.349,68.390 29.600,72.117 C25.851,75.842 18.414,74.496 12.994,69.107 C8.618,64.760 6.118,53.493 5.315,49.300 C5.244,48.935 5.359,48.557 5.625,48.293 C5.892,48.030 6.271,47.914 6.639,47.983 C10.859,48.782 22.198,51.268 26.572,55.615 ZM34.916,80.482 L34.916,32.791 C34.916,31.247 36.178,29.995 37.730,29.995 C39.286,29.995 40.545,31.247 40.545,32.791 L40.545,80.482 C40.545,82.026 39.286,83.278 37.730,83.278 C36.178,83.278 34.916,82.026 34.916,80.482 ZM93.617,81.143 L102.677,96.974 L102.677,121.419 L20.375,121.419 L20.375,109.096 L49.066,109.096 L49.066,105.164 L20.375,105.164 L20.375,95.627 L27.911,95.627 L27.911,92.260 L49.066,92.597 L49.066,96.301 L64.923,95.627 L64.923,81.143 L93.617,81.143 ZM70.221,105.164 L96.975,105.164 L96.975,95.538 L90.259,85.910 L70.221,85.910 L70.221,105.164 ZM9.407,130.111 L111.822,130.111 L111.822,130.869 C117.114,131.534 121.225,136.075 121.225,141.560 C121.225,147.044 117.114,151.584 111.822,152.249 L111.822,153.008 L9.407,153.008 L9.407,152.249 C4.112,151.585 0.004,147.044 0.004,141.560 C0.004,136.075 4.112,131.534 9.407,130.869 L9.407,130.111 ZM17.613,147.023 C20.152,147.023 22.271,145.266 22.875,142.906 L35.486,142.906 C36.086,145.266 38.205,147.023 40.745,147.023 C43.284,147.023 45.405,145.266 46.008,142.906 L56.139,142.906 C56.748,145.476 59.044,147.396 61.790,147.396 C64.534,147.396 66.826,145.476 67.439,142.906 L78.467,142.906 C79.067,145.266 81.187,147.023 83.726,147.023 C86.265,147.023 88.386,145.266 88.989,142.906 L100.180,142.906 C100.783,145.266 102.903,147.023 105.442,147.023 C108.446,147.023 110.889,144.570 110.889,141.560 C110.889,138.547 108.446,136.095 105.442,136.095 C102.903,136.095 100.783,137.853 100.180,140.213 L88.988,140.213 C88.386,137.853 86.265,136.095 83.726,136.095 C81.187,136.095 79.067,137.853 78.467,140.213 L67.438,140.213 C66.826,137.643 64.534,135.723 61.789,135.723 C59.043,135.723 56.748,137.643 56.139,140.213 L46.008,140.213 C45.404,137.853 43.284,136.095 40.745,136.095 C38.205,136.095 36.086,137.853 35.485,140.213 L22.874,140.213 C22.271,137.853 20.152,136.095 17.613,136.095 C14.608,136.095 12.167,138.547 12.167,141.560 C12.167,144.570 14.608,147.023 17.613,147.023 ZM17.613,138.789 C19.137,138.789 20.375,140.031 20.375,141.560 C20.375,143.087 19.137,144.329 17.613,144.329 C16.091,144.329 14.853,143.087 14.853,141.560 C14.853,140.031 16.091,138.789 17.613,138.789 ZM40.745,138.789 C42.270,138.789 43.510,140.031 43.510,141.560 C43.510,143.087 42.269,144.329 40.745,144.329 C39.224,144.329 37.985,143.087 37.985,141.560 C37.985,140.031 39.224,138.789 40.745,138.789 ZM61.790,138.416 C63.516,138.416 64.923,139.826 64.923,141.560 C64.923,143.292 63.516,144.702 61.790,144.702 C60.058,144.702 58.652,143.292 58.652,141.560 C58.652,139.826 60.059,138.416 61.790,138.416 ZM83.726,138.789 C85.251,138.789 86.492,140.031 86.492,141.560 C86.492,143.087 85.251,144.329 83.726,144.329 C82.205,144.329 80.966,143.087 80.966,141.560 C80.966,140.031 82.205,138.789 83.726,138.789 ZM105.442,138.789 C106.964,138.789 108.202,140.031 108.202,141.560 C108.202,143.087 106.964,144.329 105.442,144.329 C103.918,144.329 102.677,143.087 102.677,141.560 C102.677,140.031 103.918,138.789 105.442,138.789 Z" class="cls-1"/>
</svg>
