<svg xmlns="http://www.w3.org/2000/svg" xmlns:xlink="http://www.w3.org/1999/xlink" preserveAspectRatio="xMidYMid" width="152" height="142" viewBox="0 0 152 142">
  <defs>
    <style>
      .cls-1 {
        fill: #fff;
        fill-rule: evenodd;
      }
    </style>
  </defs>
  <path d="M144.931,142.001 L71.984,142.001 C68.086,142.001 64.710,138.898 64.710,135.008 L64.710,114.763 C64.710,114.131 64.898,113.519 65.055,112.935 C65.067,112.730 65.192,112.523 65.239,112.314 L76.053,63.967 C76.504,61.950 78.479,60.402 80.548,60.402 L136.367,60.402 C138.437,60.402 140.411,61.951 140.861,63.967 L151.676,112.299 C151.724,112.514 151.748,112.727 151.759,112.939 C151.915,113.522 152.000,114.133 152.000,114.763 L152.000,135.008 C152.000,138.898 148.829,142.001 144.931,142.001 ZM108.457,68.126 C94.087,68.126 82.438,76.814 82.438,87.531 C82.438,98.248 94.087,106.936 108.457,106.936 C122.828,106.936 134.477,98.248 134.477,87.531 C134.477,76.814 122.828,68.126 108.457,68.126 ZM142.779,116.847 L73.931,116.847 L73.931,132.798 L142.779,132.798 L142.779,116.847 ZM99.749,128.810 L79.771,128.810 L79.771,121.141 L99.749,121.141 L99.749,128.810 ZM108.457,93.874 C104.054,93.874 100.471,91.029 100.471,87.530 C100.471,84.032 104.054,81.187 108.457,81.187 C112.861,81.187 116.444,84.033 116.444,87.530 C116.444,91.029 112.861,93.874 108.457,93.874 ZM77.592,55.996 C75.292,55.996 73.098,57.722 72.597,59.971 L65.817,90.386 C63.433,90.773 60.990,90.982 58.498,90.982 C50.865,90.982 43.692,89.054 37.371,85.710 L37.371,80.858 C37.371,80.381 36.982,79.993 36.504,79.993 C36.030,79.993 35.642,80.381 35.642,80.858 L35.642,84.762 C34.592,84.148 33.564,83.501 32.568,82.809 L32.568,80.858 C32.568,80.381 32.180,79.993 31.706,79.993 C31.226,79.993 30.839,80.381 30.839,80.858 L30.839,81.497 C27.459,78.888 24.445,75.850 21.908,72.414 C16.348,64.868 13.011,55.581 13.011,45.504 C13.011,20.429 33.421,0.011 58.496,0.012 C65.515,0.011 72.128,1.657 78.070,4.507 C89.246,9.856 97.915,19.612 101.770,31.536 C103.198,35.948 103.982,40.628 103.982,45.504 C103.982,49.115 103.546,52.625 102.747,55.996 L77.592,55.996 ZM39.801,53.039 C39.448,52.131 39.162,51.199 38.944,50.246 C38.728,49.297 37.858,48.647 36.907,48.818 L20.627,51.719 C19.676,51.890 19.015,52.811 19.189,53.772 C19.767,56.899 20.697,59.936 21.976,62.816 C22.367,63.700 23.414,64.018 24.270,63.546 L38.959,55.488 C39.814,55.018 40.155,53.938 39.801,53.039 ZM42.084,80.858 C42.084,80.381 41.696,79.993 41.219,79.993 C40.742,79.993 40.353,80.381 40.353,80.858 L40.353,86.036 C40.353,86.509 40.744,86.896 41.219,86.896 C41.696,86.896 42.084,86.509 42.084,86.035 L42.084,80.858 ZM58.496,33.632 C51.959,33.632 46.639,38.964 46.637,45.502 C46.637,52.045 51.957,57.361 58.496,57.361 C65.036,57.361 70.362,52.045 70.364,45.502 C70.362,38.964 65.036,33.632 58.496,33.632 ZM79.810,11.504 C79.004,11.005 78.184,10.535 77.346,10.093 C76.485,9.637 75.430,10.010 75.009,10.890 L67.817,25.972 C67.398,26.853 67.778,27.898 68.617,28.398 C68.761,28.483 68.906,28.571 69.046,28.661 C69.871,29.179 70.919,28.994 71.436,28.169 L80.348,13.968 C80.865,13.143 80.637,12.019 79.810,11.504 ZM96.121,31.507 C94.555,27.317 92.299,23.462 89.501,20.067 C88.881,19.316 87.785,19.285 87.089,19.966 L75.146,31.674 C74.448,32.357 74.396,33.514 74.947,34.322 C75.678,35.392 76.305,36.539 76.815,37.748 C77.194,38.647 78.180,39.160 79.105,38.860 L95.025,33.716 C95.951,33.415 96.463,32.418 96.121,31.507 ZM58.496,52.764 C54.483,52.764 51.228,49.511 51.228,45.496 C51.228,41.484 54.483,38.230 58.496,38.230 C62.510,38.230 65.763,41.484 65.763,45.496 C65.763,49.511 62.510,52.764 58.496,52.764 ZM17.063,86.036 L17.063,80.858 C17.063,80.381 17.450,79.993 17.930,79.993 C18.406,79.993 18.793,80.381 18.793,80.858 L18.793,86.035 C18.793,86.509 18.406,86.896 17.930,86.896 C17.450,86.896 17.063,86.509 17.063,86.036 ZM21.775,86.036 L21.775,80.858 C21.775,80.381 22.164,79.993 22.641,79.993 C23.118,79.993 23.505,80.381 23.505,80.858 L23.505,86.035 C23.505,86.509 23.118,86.896 22.641,86.896 C22.164,86.896 21.775,86.509 21.775,86.036 ZM26.124,86.036 L26.124,80.858 C26.124,80.381 26.513,79.993 26.991,79.993 C27.467,79.993 27.854,80.381 27.854,80.858 L27.854,86.035 C27.854,86.509 27.467,86.896 26.991,86.896 C26.513,86.896 26.124,86.509 26.124,86.036 ZM30.839,86.036 L30.839,81.616 C31.405,82.051 31.982,82.471 32.568,82.879 L32.568,86.035 C32.568,86.509 32.180,86.896 31.706,86.896 C31.226,86.896 30.839,86.509 30.839,86.036 ZM35.642,86.036 L35.642,84.835 C36.211,85.166 36.786,85.487 37.371,85.794 L37.371,86.035 C37.371,86.509 36.982,86.896 36.504,86.896 C36.030,86.896 35.642,86.509 35.642,86.036 ZM43.621,89.164 C46.571,89.164 48.974,91.565 48.974,94.515 L48.974,122.614 C48.974,125.569 46.571,127.967 43.621,127.967 L15.523,127.967 C12.575,127.967 10.172,125.569 10.172,122.614 L10.172,94.516 C10.172,91.565 12.575,89.164 15.523,89.164 L43.621,89.164 ZM6.034,120.845 L0.858,120.845 C0.383,120.845 -0.006,120.459 -0.006,119.984 C-0.006,119.506 0.382,119.116 0.858,119.116 L6.034,119.116 C6.510,119.116 6.899,119.506 6.900,119.984 C6.900,120.459 6.511,120.845 6.034,120.845 ZM6.034,116.133 L0.858,116.133 C0.383,116.133 -0.006,115.744 -0.006,115.268 C-0.006,114.793 0.382,114.404 0.858,114.404 L6.034,114.404 C6.510,114.404 6.900,114.793 6.900,115.268 C6.900,115.744 6.511,116.133 6.034,116.133 ZM6.034,111.787 L0.858,111.787 C0.383,111.787 -0.006,111.399 -0.006,110.922 C-0.006,110.444 0.382,110.056 0.858,110.056 L6.034,110.056 C6.510,110.056 6.899,110.443 6.900,110.922 C6.900,111.398 6.511,111.787 6.034,111.787 ZM6.034,107.075 L0.858,107.075 C0.383,107.075 -0.006,106.684 -0.006,106.206 C-0.006,105.731 0.382,105.342 0.858,105.342 L6.034,105.342 C6.510,105.342 6.899,105.731 6.900,106.206 C6.900,106.685 6.511,107.075 6.034,107.075 ZM6.034,102.270 L0.858,102.270 C0.383,102.270 -0.006,101.882 -0.006,101.406 C-0.006,100.926 0.382,100.539 0.858,100.539 L6.034,100.539 C6.510,100.539 6.899,100.926 6.900,101.406 C6.900,101.881 6.511,102.270 6.034,102.270 ZM6.034,97.556 L0.858,97.556 C0.383,97.556 -0.006,97.169 -0.006,96.691 C-0.006,96.214 0.382,95.825 0.858,95.825 L6.034,95.825 C6.510,95.825 6.899,96.214 6.900,96.691 C6.900,97.169 6.511,97.556 6.034,97.556 ZM17.930,131.099 C18.406,131.099 18.793,131.488 18.793,131.963 L18.793,137.139 C18.793,137.615 18.406,138.003 17.930,138.003 C17.450,138.003 17.063,137.615 17.063,137.139 L17.063,131.963 C17.063,131.488 17.450,131.099 17.930,131.099 ZM22.641,131.099 C23.117,131.099 23.505,131.488 23.505,131.963 L23.505,137.139 C23.505,137.615 23.118,138.003 22.641,138.003 C22.164,138.003 21.775,137.615 21.775,137.139 L21.775,131.963 C21.775,131.488 22.164,131.099 22.641,131.099 ZM26.991,131.099 C27.467,131.099 27.854,131.488 27.854,131.963 L27.854,137.139 C27.854,137.615 27.467,138.003 26.991,138.003 C26.513,138.003 26.124,137.615 26.124,137.139 L26.124,131.963 C26.124,131.488 26.513,131.099 26.991,131.099 ZM31.706,131.099 C32.180,131.099 32.568,131.488 32.568,131.963 L32.568,137.139 C32.568,137.615 32.180,138.003 31.706,138.003 C31.226,138.003 30.839,137.615 30.839,137.139 L30.839,131.963 C30.839,131.488 31.226,131.099 31.706,131.099 ZM36.504,131.099 C36.982,131.099 37.371,131.488 37.371,131.963 L37.371,137.139 C37.371,137.615 36.982,138.003 36.504,138.003 C36.030,138.003 35.642,137.615 35.642,137.139 L35.642,131.963 C35.642,131.488 36.030,131.099 36.504,131.099 ZM41.219,131.099 C41.696,131.099 42.084,131.488 42.084,131.963 L42.084,137.139 C42.084,137.615 41.696,138.003 41.219,138.003 C40.744,138.003 40.353,137.615 40.353,137.139 L40.353,131.963 C40.353,131.488 40.742,131.099 41.219,131.099 ZM51.963,95.826 L57.138,95.826 C57.616,95.826 58.004,96.215 58.004,96.692 C58.004,97.170 57.616,97.557 57.138,97.557 L51.963,97.557 C51.486,97.557 51.098,97.169 51.098,96.692 C51.098,96.215 51.486,95.826 51.963,95.826 ZM51.963,100.539 L57.138,100.539 C57.616,100.539 58.004,100.926 58.004,101.406 C58.004,101.881 57.616,102.270 57.138,102.270 L51.963,102.270 C51.488,102.270 51.098,101.882 51.098,101.406 C51.098,100.926 51.486,100.539 51.963,100.539 ZM51.963,105.342 L57.138,105.342 C57.616,105.342 58.004,105.731 58.004,106.206 C58.004,106.685 57.616,107.075 57.138,107.075 L51.963,107.075 C51.488,107.075 51.098,106.684 51.098,106.206 C51.098,105.731 51.486,105.342 51.963,105.342 ZM51.963,110.056 L57.138,110.056 C57.616,110.056 58.004,110.443 58.004,110.922 C58.004,111.398 57.616,111.787 57.138,111.787 L51.963,111.787 C51.488,111.787 51.098,111.399 51.098,110.922 C51.098,110.444 51.486,110.056 51.963,110.056 ZM51.963,114.404 L57.138,114.404 C57.616,114.404 58.004,114.793 58.004,115.268 C58.004,115.744 57.616,116.133 57.138,116.133 L51.963,116.133 C51.488,116.133 51.098,115.744 51.098,115.268 C51.098,114.793 51.486,114.404 51.963,114.404 ZM51.963,119.116 L57.138,119.116 C57.616,119.116 58.004,119.506 58.004,119.984 C58.004,120.459 57.616,120.845 57.138,120.845 L51.963,120.845 C51.488,120.845 51.098,120.459 51.098,119.984 C51.098,119.506 51.486,119.116 51.963,119.116 Z" class="cls-1"/>
</svg>
