<svg xmlns="http://www.w3.org/2000/svg" xmlns:xlink="http://www.w3.org/1999/xlink" preserveAspectRatio="xMidYMid" width="171" height="136.969" viewBox="0 0 171 136.969">
  <defs>
    <style>
      .cls-1 {
        fill: #fff;
        fill-rule: evenodd;
      }
    </style>
  </defs>
  <path d="M156.815,96.697 C156.520,98.534 155.596,100.269 154.418,101.936 C154.432,101.922 154.445,101.902 154.459,101.888 C156.061,104.108 156.986,106.493 156.986,108.992 L156.986,115.987 C156.986,127.572 138.148,136.971 114.914,136.971 C98.958,136.971 85.077,132.538 77.945,126.009 C77.699,127.170 77.562,128.364 77.607,129.584 C77.672,131.531 76.232,133.203 74.289,133.417 C71.837,133.689 69.384,133.824 66.932,133.824 C64.349,133.824 61.773,133.675 59.212,133.377 C57.254,133.152 55.807,131.437 55.923,129.467 C56.279,123.197 52.641,117.359 46.856,114.942 C41.334,112.628 34.159,114.267 30.150,118.695 C28.819,120.160 26.584,120.334 25.049,119.099 C21.134,115.953 17.561,112.348 14.447,108.388 C13.239,106.859 13.421,104.661 14.855,103.345 C19.439,99.149 20.945,92.501 18.602,86.797 C16.252,81.086 10.649,77.477 4.813,77.626 C2.893,77.626 0.629,76.225 0.419,74.336 C-0.149,69.267 -0.142,64.144 0.448,59.117 C0.680,57.188 2.193,55.763 4.318,55.831 C10.867,55.831 16.587,52.286 18.900,46.786 C21.323,41.016 19.817,34.305 15.153,30.088 C13.698,28.765 13.516,26.538 14.753,25.001 C17.925,21.048 21.578,17.445 25.595,14.298 C27.130,13.104 29.334,13.280 30.652,14.723 C34.638,19.101 41.763,20.729 47.241,18.494 C52.954,16.158 56.636,10.422 56.418,4.216 C56.352,2.273 57.793,0.601 59.736,0.387 C64.757,-0.169 69.807,-0.152 74.812,0.427 C76.778,0.655 78.218,2.367 78.101,4.335 C77.745,10.603 81.384,16.441 87.154,18.865 C92.698,21.176 99.873,19.533 103.868,15.115 C105.192,13.651 107.433,13.481 108.961,14.705 C112.782,17.761 116.282,21.284 119.379,25.174 C140.514,26.286 156.986,35.207 156.986,46.039 L156.986,53.034 C156.986,54.699 156.555,56.323 155.817,57.878 C165.094,61.724 171.010,67.530 171.010,74.019 L171.010,81.013 C171.010,87.257 165.504,92.851 156.815,96.697 ZM114.914,126.480 C137.641,126.480 153.480,117.258 153.480,108.992 C153.480,107.592 152.877,106.178 152.014,104.778 C152.021,104.771 152.021,104.771 152.028,104.764 C144.982,111.424 131.054,115.987 114.914,115.987 C98.795,115.987 84.798,111.458 77.738,104.812 C77.745,104.826 77.759,104.839 77.766,104.845 C76.937,106.226 76.348,107.620 76.348,108.992 C76.348,117.258 92.187,126.480 114.914,126.480 ZM72.842,53.034 L72.842,48.328 C66.207,51.647 62.324,55.944 62.324,60.029 C62.324,68.294 78.163,77.516 100.890,77.516 C110.367,77.516 118.536,75.856 124.966,73.390 C121.741,73.786 118.386,74.019 114.914,74.019 C91.680,74.019 72.842,64.619 72.842,53.034 ZM88.681,87.099 C84.620,86.491 80.820,85.583 77.382,84.429 C76.759,85.617 76.348,86.819 76.348,88.008 C76.348,96.273 92.187,105.495 114.914,105.495 C124.398,105.495 132.567,103.842 139.004,101.369 C139.018,101.369 139.025,101.362 139.031,101.362 C135.792,101.765 132.423,101.998 128.938,101.998 C109.949,101.998 93.912,95.720 88.681,87.099 ZM66.365,40.092 C51.556,40.092 39.509,52.264 39.509,67.227 C39.509,82.190 51.556,94.362 66.365,94.362 C68.602,94.362 70.765,94.060 72.842,93.534 L72.842,88.008 C72.842,86.342 73.274,84.715 74.013,83.158 C64.734,79.312 58.818,73.513 58.818,67.024 L58.818,60.029 C58.818,53.792 64.314,48.195 72.989,44.356 C73.159,43.289 73.488,42.245 73.966,41.229 C71.553,40.505 69.008,40.092 66.365,40.092 ZM114.914,28.553 C92.187,28.553 76.348,37.767 76.348,46.039 C76.348,54.305 92.187,63.527 114.914,63.527 C137.641,63.527 153.480,54.305 153.480,46.039 C153.480,37.767 137.641,28.553 114.914,28.553 ZM153.841,60.987 C151.383,63.978 147.562,66.608 142.791,68.718 C141.188,78.690 125.576,86.608 105.806,87.769 C112.093,90.030 119.940,91.506 128.938,91.506 C151.665,91.506 167.504,82.284 167.504,74.019 C167.504,69.347 162.329,64.430 153.841,60.987 ZM110.586,42.064 C111.675,42.426 114.024,42.870 117.612,43.417 C121.557,44.005 124.652,44.558 126.891,45.083 C129.137,45.603 130.924,46.327 132.266,47.249 C133.602,48.171 134.272,49.251 134.272,50.480 C134.272,52.379 132.889,53.950 130.130,55.213 C127.370,56.477 123.385,57.221 118.174,57.447 L118.174,60.684 L111.531,60.684 L111.531,57.461 C102.842,57.098 97.466,55.028 95.392,51.272 L105.663,50.178 C106.615,52.543 109.765,53.724 115.113,53.724 C117.612,53.724 119.461,53.471 120.639,52.966 C121.817,52.460 122.405,51.852 122.405,51.135 C122.405,50.398 121.816,49.831 120.639,49.455 C119.461,49.072 116.838,48.581 112.777,47.993 C109.128,47.481 106.272,46.968 104.218,46.463 C102.164,45.958 100.493,45.247 99.212,44.345 C97.932,43.430 97.288,42.364 97.288,41.162 C97.288,39.577 98.438,38.142 100.726,36.872 C103.013,35.608 106.615,34.837 111.531,34.550 L111.531,32.050 L118.174,32.050 L118.174,34.550 C125.596,34.919 130.404,36.627 132.588,39.700 L123.439,41.231 C121.652,39.127 118.899,38.075 115.161,38.075 C113.284,38.075 111.778,38.307 110.648,38.785 C109.511,39.250 108.943,39.824 108.943,40.493 C108.943,41.176 109.491,41.695 110.586,42.064 Z" class="cls-1"/>
</svg>
