<svg xmlns="http://www.w3.org/2000/svg" xmlns:xlink="http://www.w3.org/1999/xlink" preserveAspectRatio="xMidYMid" width="42" height="42" viewBox="0 0 42 42">
  <defs>
    <style>
      .cls-1 {
        fill: #867f97;
        fill-rule: evenodd;
      }
    </style>
  </defs>
  <path d="M34.057,41.997 L32.555,41.997 C30.996,41.998 28.899,41.998 26.875,41.998 L26.880,26.987 L34.062,27.020 L34.062,19.843 L26.875,19.843 L26.875,17.034 C26.875,15.888 27.495,15.162 28.125,15.162 L34.062,15.162 L34.062,7.985 L28.125,7.985 C23.704,7.985 20.312,12.247 20.312,17.034 L20.312,19.843 L15.000,19.843 L15.000,27.020 L20.312,27.020 L20.312,42.000 C20.312,42.000 23.482,41.999 26.875,41.998 L26.875,42.000 L32.555,41.997 C33.144,41.997 33.653,41.997 34.053,41.997 C34.035,41.997 34.018,42.000 34.000,42.000 L8.000,42.000 C3.582,42.000 -0.000,38.418 -0.000,34.000 L-0.000,8.000 C-0.000,3.582 3.582,-0.000 8.000,-0.000 L34.000,-0.000 C38.418,-0.000 42.000,3.582 42.000,8.000 L42.000,34.000 C42.000,38.399 38.449,41.966 34.057,41.997 Z" class="cls-1"/>
</svg>
