<svg xmlns="http://www.w3.org/2000/svg" xmlns:xlink="http://www.w3.org/1999/xlink" preserveAspectRatio="xMidYMid" width="42" height="42" viewBox="0 0 42 42">
  <defs>
    <style>
      .cls-1 {
        fill: #867f97;
        fill-rule: evenodd;
      }
    </style>
  </defs>
  <path d="M34.000,42.000 L8.000,42.000 C3.582,42.000 -0.000,38.418 -0.000,34.000 L-0.000,8.000 C-0.000,3.582 3.582,-0.000 8.000,-0.000 L34.000,-0.000 C38.418,-0.000 42.000,3.582 42.000,8.000 L42.000,34.000 C42.000,38.418 38.418,42.000 34.000,42.000 ZM6.237,35.765 L12.471,35.765 L12.471,15.746 L6.237,15.746 L6.237,35.765 ZM9.370,5.577 C7.077,5.577 5.576,7.209 5.576,9.350 C5.576,11.450 7.034,13.127 9.283,13.127 L9.328,13.127 C11.665,13.127 13.120,11.451 13.120,9.350 C13.075,7.208 11.664,5.577 9.370,5.577 ZM35.766,23.625 C35.766,17.365 33.132,15.093 28.875,15.093 C25.176,15.093 23.171,17.315 22.312,18.703 L22.312,15.750 L16.406,15.750 C16.406,17.766 16.406,35.765 16.406,35.765 L22.641,35.765 L22.641,25.921 C22.641,24.720 22.638,20.671 26.250,20.671 C29.532,20.671 29.531,22.855 29.531,25.593 L29.531,35.765 L35.766,35.765 L35.766,23.625 Z" class="cls-1"/>
</svg>
